<svg width="800" height="800" viewBox="0 0 800 800" fill="none" xmlns="http://www.w3.org/2000/svg">
<path d="M788.457 304.598C774.05 245.937 746.544 191.299 708.004 144.787C669.464 98.2747 620.889 61.095 565.927 36.038C510.964 10.981 451.04 -1.30249 390.651 0.109259C330.263 1.521 270.978 16.5913 217.247 44.1893C163.515 71.7874 116.731 111.196 80.4066 159.459C44.0819 207.721 19.1595 263.584 7.50968 322.855C-4.14017 382.126 -2.21492 443.266 13.1409 501.686C28.4968 560.107 56.8845 614.291 96.1737 660.172L155.531 609.343C123.918 572.425 101.076 528.827 88.7204 481.82C76.3645 434.813 74.8154 385.618 84.1893 337.927C93.5631 290.235 113.616 245.286 142.845 206.453C172.073 167.619 209.716 135.909 252.951 113.703C296.185 91.4967 343.887 79.3706 392.478 78.2346C441.068 77.0987 489.285 86.9824 533.51 107.144C577.735 127.306 616.819 157.222 647.83 194.647C678.841 232.073 700.973 276.035 712.565 323.237L788.457 304.598Z" fill="#333333"/>
<path d="M122.03 410.478C122.03 462.336 135.875 513.252 162.134 557.965C188.393 602.678 226.114 639.565 271.397 664.812C316.68 690.06 367.883 702.754 419.712 701.58C471.541 700.406 522.117 685.408 566.211 658.136C610.306 630.864 646.319 592.307 670.528 546.451C694.738 500.595 706.265 449.104 703.918 397.3C701.572 345.496 685.437 295.259 657.182 251.78C628.926 208.302 589.575 173.161 543.196 149.989L515.093 206.27C551.451 224.436 582.3 251.984 604.451 286.069C626.601 320.153 639.25 359.536 641.089 400.147C642.929 440.759 633.892 481.125 614.913 517.073C595.935 553.021 567.703 583.247 533.135 604.627C498.568 626.007 458.92 637.764 418.289 638.684C377.657 639.605 337.518 629.654 302.019 609.861C266.519 590.068 236.949 561.151 216.363 526.099C195.777 491.047 184.923 451.131 184.923 410.478L122.03 410.478Z" fill="#FFD42A"/>
<path fill-rule="evenodd" clip-rule="evenodd" d="M567.392 384.734C567.392 473.475 498.29 545.414 413.048 545.414C327.807 545.414 258.705 473.475 258.705 384.734C258.705 295.994 327.807 224.055 413.048 224.055C498.29 224.055 567.392 295.994 567.392 384.734ZM474.133 387.569C474.133 420.137 448.201 446.539 416.212 446.539C384.223 446.539 358.291 420.137 358.291 387.569C358.291 355.002 384.223 328.6 416.212 328.6C448.201 328.6 474.133 355.002 474.133 387.569Z" fill="#333333"/>
<path d="M516.502 501.987L563.165 545.414H513.98L491.279 521.84L516.502 501.987Z" fill="#333333"/>
<path d="M296.592 428.162C314.073 428.162 328.243 410.663 328.243 389.078C328.243 367.492 314.073 349.994 296.592 349.994C279.112 349.994 264.941 367.492 264.941 389.078C264.941 410.663 279.112 428.162 296.592 428.162Z" fill="#F9F9F9"/>
<path fill-rule="evenodd" clip-rule="evenodd" d="M537.792 386.906C537.792 440.87 494.249 484.616 440.535 484.616C386.821 484.616 343.277 440.87 343.277 386.906C343.277 332.942 386.821 289.196 440.535 289.196C494.249 289.196 537.792 332.942 537.792 386.906ZM472.451 389.611C472.451 420.687 447.503 445.879 416.727 445.879C385.951 445.879 361.003 420.687 361.003 389.611C361.003 358.535 385.951 333.343 416.727 333.343C447.503 333.343 472.451 358.535 472.451 389.611Z" fill="#FFD42A"/>
<path d="M505.491 415.133C519.475 415.133 530.812 402.495 530.812 386.906C530.812 371.316 519.475 358.678 505.491 358.678C491.506 358.678 480.17 371.316 480.17 386.906C480.17 402.495 491.506 415.133 505.491 415.133Z" fill="#333333"/>
</svg>
