<svg width="342" height="171" viewBox="0 0 342 171" fill="none" xmlns="http://www.w3.org/2000/svg">
<g clip-path="url(#clip0)">
<path d="M422 -39H-78V211H422V-39Z" fill="white"/>
<path d="M422 -164H-78V336H422V-164Z" fill="white"/>
<path d="M67.674 115.111C55.774 113.811 46.374 104.111 45.174 92.3109C44.474 85.2109 46.674 78.5109 50.874 73.5109C51.374 72.9109 51.274 72.1109 50.674 71.6109L32.774 55.2109C32.174 54.7109 31.274 54.7109 30.774 55.3109C22.074 65.4109 16.9738 78.9109 18.1738 93.6109C20.0738 120.111 41.974 141.311 68.574 142.311C98.074 143.511 122.574 120.211 123.374 91.2109C123.374 90.4109 122.774 89.8109 121.974 89.8109H97.574C96.874 89.8109 96.174 90.4109 96.174 91.1109C95.374 105.411 82.674 116.711 67.674 115.111Z" fill="#FB4300"/>
<path d="M98.574 46.7108L85.374 67.1108C84.974 67.7108 85.074 68.6108 85.674 69.0108C89.574 71.9108 92.674 75.9108 94.474 80.6108C94.774 81.3108 95.474 81.6108 96.174 81.4108L119.274 74.0108C120.074 73.8108 120.474 72.9108 120.174 72.2108C116.474 61.7108 109.374 52.6108 100.474 46.4108C99.874 45.9108 98.974 46.1108 98.574 46.7108Z" fill="#FB4300"/>
<path d="M64.274 26.6108L68.674 47.9108C68.774 48.6108 69.374 49.0109 70.074 49.0109C74.474 49.0109 78.774 49.5109 82.974 50.8109C83.674 51.0109 84.374 50.7108 84.674 50.1108L94.774 30.8109C95.174 30.1109 94.874 29.2108 94.174 28.9108C85.274 24.6108 75.174 23.2109 65.474 24.8109C64.674 25.1109 64.174 25.8108 64.274 26.6108Z" fill="#FB4300"/>
<path d="M29.374 31.3109L42.074 44.3109C42.574 44.8109 43.274 44.9109 43.874 44.5109C46.874 42.6109 50.274 41.0109 53.574 40.0109C54.274 39.8109 54.674 39.2109 54.574 38.5109L52.974 20.3109C52.874 19.5109 52.174 18.9109 51.374 19.0109C43.174 20.1109 35.374 23.7109 29.374 29.1109C28.774 29.8109 28.774 30.7109 29.374 31.3109Z" fill="#FB4300"/>
<path d="M280.374 33.1108H274.374V56.2108H280.374V33.1108Z" fill="black"/>
<path d="M277.373 29.9109C279.362 29.9109 280.973 28.2989 280.973 26.3109C280.973 24.3229 279.362 22.7109 277.373 22.7109C275.385 22.7109 273.773 24.3229 273.773 26.3109C273.773 28.2989 275.385 29.9109 277.373 29.9109Z" fill="black"/>
<path d="M237.774 56.8109C239.874 56.8109 241.674 55.9108 243.274 54.5108V56.2108H249.274V40.7108V33.1108H243.274V45.7108C243.274 48.4108 241.774 50.8109 238.774 50.8109C235.774 50.8109 234.274 49.4108 234.274 46.7108V33.1108H228.274V46.7108C228.174 52.7108 231.474 56.8109 237.774 56.8109Z" fill="black"/>
<path d="M302.873 97.1109L298.873 107.011H305.273L317.773 76.0109H311.373L306.073 89.1109L300.773 76.0109H294.273L302.873 97.1109Z" fill="black"/>
<path d="M225.174 118.611C223.074 118.611 221.274 119.511 219.674 120.911V119.211H213.674V142.311H219.674V129.711C219.674 127.011 221.174 124.611 224.174 124.611C227.174 124.611 228.674 126.011 228.674 128.711V142.311H234.674V128.711C234.674 122.711 231.474 118.611 225.174 118.611Z" fill="black"/>
<path d="M207.374 119.211H201.374V142.311H207.374V119.211Z" fill="black"/>
<path d="M204.373 116.111C206.362 116.111 207.973 114.499 207.973 112.511C207.973 110.523 206.362 108.911 204.373 108.911C202.385 108.911 200.773 110.523 200.773 112.511C200.773 114.499 202.385 116.111 204.373 116.111Z" fill="black"/>
<path d="M185.874 118.611C183.774 118.611 181.974 119.511 180.374 120.911V110.611H174.374V134.711V142.311H180.374V129.711C180.374 127.011 181.874 124.611 184.874 124.611C187.874 124.611 189.374 126.011 189.374 128.711V142.311H195.374V128.711C195.474 122.711 192.174 118.611 185.874 118.611Z" fill="black"/>
<path d="M145.974 116.711H155.074V142.311H161.074V116.711H170.074V110.711H145.974V116.711Z" fill="black"/>
<path d="M277.773 127.811C275.473 127.511 273.873 126.511 273.873 125.111C273.873 123.811 275.273 122.811 277.373 122.811C279.173 122.811 280.873 124.311 280.873 125.611H286.873C286.873 121.211 282.673 117.811 277.373 117.811C272.073 117.811 267.873 121.211 267.873 125.611C267.873 129.811 271.273 132.211 276.973 133.011C280.073 133.411 281.573 134.611 281.573 136.311C281.573 137.911 279.773 138.611 277.673 138.611C275.873 138.611 273.773 137.111 273.773 135.511H267.773C267.773 140.011 272.073 143.611 277.673 143.611C283.173 143.611 287.573 140.011 287.573 135.511C287.573 131.411 283.673 128.611 277.773 127.811Z" fill="black"/>
<path d="M224.573 96.4109V99.1109H230.773V85.9109C230.773 82.4109 230.073 79.8109 228.173 78.0109C226.173 76.2109 223.373 75.4109 219.773 75.4109C217.873 75.4109 216.073 75.6109 214.273 76.1109C212.473 76.6109 210.973 77.3109 209.673 78.2109L212.173 83.0109C212.973 82.4109 214.073 81.8109 215.273 81.4109C216.473 81.0109 217.773 80.8109 218.973 80.8109C220.773 80.8109 222.173 81.2109 222.973 82.0109C223.873 82.8109 224.273 84.0109 224.273 85.4109H218.973C215.573 85.4109 212.973 86.0109 211.273 87.3109C209.573 88.5109 208.773 90.3109 208.773 92.5109C208.773 93.8109 209.073 95.1109 209.773 96.1109C210.473 97.1109 211.573 98.1109 212.773 98.6109C214.073 99.2109 215.673 99.5109 217.473 99.5109C220.873 99.7109 223.173 98.7109 224.573 96.4109ZM215.273 92.2109C215.273 90.3109 216.773 89.4109 219.473 89.4109H224.473C224.473 89.4109 224.473 90.9109 224.173 91.8109C223.873 92.7109 223.173 93.7109 222.173 94.2109C221.273 94.7109 220.173 95.0109 219.073 95.0109C217.873 95.0109 216.873 94.8109 216.273 94.3109C215.573 93.8109 215.273 93.2109 215.273 92.2109Z" fill="black"/>
<path d="M179.874 55.3109C181.874 56.3109 184.274 56.8109 186.874 56.8109C191.074 56.8109 194.274 55.5109 196.474 53.0109L192.874 49.1109C192.074 49.9109 191.174 50.5109 190.274 50.8109C189.374 51.2109 188.274 51.3109 187.074 51.3109C185.274 51.3109 183.874 50.9109 182.674 50.0109C181.474 49.2109 180.774 48.0109 180.374 46.6109H198.174C198.274 45.5109 198.274 44.9109 198.274 44.8109C198.274 42.4109 197.774 40.2109 196.674 38.4109C195.574 36.6109 194.174 35.1109 192.274 34.2109C190.374 33.2109 188.374 32.7109 186.074 32.7109C183.774 32.7109 181.574 33.2109 179.674 34.2109C177.774 35.2109 176.274 36.7109 175.174 38.5109C174.074 40.3109 173.574 42.4109 173.574 44.7109C173.574 47.0109 174.074 49.1109 175.274 50.9109C176.274 52.8109 177.874 54.3109 179.874 55.3109ZM182.174 39.1109C183.174 38.2109 184.474 37.8109 186.074 37.8109C187.574 37.8109 188.874 38.2109 189.874 39.1109C190.874 40.0109 191.574 41.2109 191.774 42.6109H180.274C180.474 41.2109 181.074 40.0109 182.174 39.1109Z" fill="black"/>
<path d="M310.873 54.2108L306.873 64.1108H313.273L325.773 33.1108H319.373L314.073 46.2108L308.773 33.1108H302.273L310.873 54.2108Z" fill="black"/>
<path d="M280.774 81.0108V89.6108C280.774 96.3108 285.674 99.7108 290.974 99.7108C292.074 99.7108 293.074 99.6108 293.974 99.3108L291.774 93.7108C291.774 93.7108 291.274 93.8108 290.974 93.8108C288.674 93.8108 286.674 92.7108 286.674 89.6108V81.0108H291.774V76.0108H286.774V71.2108H280.774V76.0108H277.674V81.0108H280.774Z" fill="black"/>
<path d="M256.974 121.311C255.374 119.611 253.074 118.611 250.174 118.611C243.674 118.611 239.374 123.711 239.374 129.911C239.374 136.111 243.674 141.211 250.174 141.211C253.074 141.211 255.374 140.211 256.974 138.511V140.811C256.974 144.611 254.074 146.311 251.274 146.311C246.774 146.311 245.574 143.011 245.574 143.011L239.874 145.211C241.174 149.311 245.674 152.311 251.174 152.311C257.974 152.311 262.874 147.511 262.874 140.811V119.211H256.874V121.311H256.974ZM251.174 136.311C247.974 136.311 245.374 133.611 245.374 130.011C245.374 126.411 247.974 123.711 251.174 123.711C254.374 123.711 256.974 126.611 256.974 130.011C256.974 133.411 254.374 136.311 251.174 136.311Z" fill="black"/>
<path d="M158.174 56.7109C151.374 56.7109 146.074 52.4109 146.074 46.9109H152.074C152.074 48.7109 154.574 50.7109 158.174 50.7109C161.774 50.7109 164.274 48.7109 164.274 46.9109C164.274 45.2109 161.274 43.6109 157.274 43.1109C150.174 42.2109 145.974 38.7109 145.974 33.7109C145.974 28.4109 151.074 24.2109 157.674 24.2109C164.274 24.2109 169.374 28.4109 169.374 33.7109H163.374C163.374 32.1109 161.074 30.2109 157.674 30.2109C154.274 30.2109 151.974 32.0109 151.974 33.7109C151.974 35.7109 155.074 36.8109 158.074 37.2109C165.474 38.2109 170.274 42.0109 170.274 47.0109C170.274 52.4109 164.974 56.7109 158.174 56.7109Z" fill="black"/>
<path d="M193.274 99.6108C186.474 99.6108 181.174 95.3109 181.174 89.8109H187.174C187.174 91.6109 189.674 93.6108 193.274 93.6108C196.874 93.6108 199.374 91.6109 199.374 89.8109C199.374 88.1109 196.374 86.5108 192.374 86.0108C185.274 85.1108 181.074 81.6108 181.074 76.6108C181.074 71.3108 186.174 67.1108 192.774 67.1108C199.374 67.1108 204.474 71.3108 204.474 76.6108H198.474C198.474 75.0108 196.174 73.1108 192.774 73.1108C189.374 73.1108 187.074 74.9108 187.074 76.6108C187.074 78.6108 190.174 79.7108 193.174 80.1108C200.574 81.1108 205.374 84.9108 205.374 89.9108C205.374 95.3108 200.074 99.6108 193.274 99.6108Z" fill="black"/>
<path d="M213.074 56.8109C217.774 56.8109 221.874 53.9108 223.674 49.7108L218.074 47.5108C217.074 49.4108 215.274 50.8109 213.074 50.8109C209.974 50.8109 207.374 48.1108 207.374 44.7108C207.374 41.3108 209.874 38.6108 213.074 38.6108C215.174 38.6108 216.974 39.8108 217.974 41.6108L223.574 39.4108C221.674 35.4108 217.674 32.6108 213.074 32.6108C206.674 32.6108 201.374 38.0108 201.374 44.7108C201.374 51.4108 206.574 56.8109 213.074 56.8109Z" fill="black"/>
<path d="M262.374 45.2108C262.374 41.8108 264.874 39.1108 268.074 39.1108C269.274 39.1108 269.774 39.1108 269.774 39.1108V33.1108H268.074C265.974 33.1108 264.074 34.1108 262.374 35.6108V33.1108H256.374V56.2108H262.374V45.2108Z" fill="black"/>
<path d="M288.474 38.1109V46.7109C288.474 53.4109 293.374 56.8109 298.674 56.8109C299.774 56.8109 300.774 56.7109 301.674 56.4109L299.474 50.8109C299.474 50.8109 298.974 50.9109 298.674 50.9109C296.374 50.9109 294.374 49.8109 294.374 46.7109V38.1109H299.474V33.1109H294.474V28.3109H288.474V33.1109H285.374V38.1109H288.474Z" fill="black"/>
<path d="M243.473 99.1108V81.0108H248.373V76.0108H243.473C243.473 72.1108 245.473 71.2108 248.373 71.5108V66.1108C240.973 66.1108 237.473 69.7108 237.473 76.0108H234.273V81.0108H237.473V99.1108H243.473Z" fill="black"/>
<path d="M257.174 98.1109C259.174 99.1109 261.574 99.6109 264.174 99.6109C268.374 99.6109 271.574 98.3109 273.774 95.8109L270.174 91.9109C269.374 92.7109 268.474 93.3109 267.574 93.6109C266.674 94.0109 265.574 94.1109 264.374 94.1109C262.574 94.1109 261.174 93.7109 259.974 92.8109C258.774 92.0109 258.074 90.8109 257.674 89.4109H275.474C275.574 88.3109 275.574 87.7109 275.574 87.6109C275.574 85.2109 275.074 83.0109 273.974 81.2109C272.874 79.4109 271.474 77.9109 269.574 77.0109C267.674 76.0109 265.674 75.5109 263.374 75.5109C261.074 75.5109 258.874 76.0109 256.974 77.0109C255.074 78.0109 253.574 79.5109 252.474 81.3109C251.374 83.1109 250.874 85.2109 250.874 87.5109C250.874 89.8109 251.374 91.9109 252.574 93.7109C253.574 95.6109 255.174 97.1109 257.174 98.1109ZM259.474 82.0109C260.474 81.1109 261.774 80.7109 263.374 80.7109C264.874 80.7109 266.174 81.1109 267.174 82.0109C268.174 82.9109 268.874 84.1109 269.074 85.5109H257.574C257.774 84.1109 258.374 82.9109 259.474 82.0109Z" fill="black"/>
<path d="M158.174 78.5109C156.274 76.5109 156.774 74.0109 158.274 72.9109C159.874 71.6109 161.974 72.0109 163.274 73.4109C163.774 73.9109 164.274 74.5109 164.974 75.3109L170.974 72.9109C170.774 72.6109 168.474 69.8109 167.674 69.0109C165.874 67.2109 163.474 66.1109 160.874 66.0109H160.774C158.874 66.0109 156.974 66.5109 155.474 67.5109C151.074 70.5109 149.974 75.5109 151.874 79.8109C151.174 80.3109 150.374 81.0109 149.374 81.8109C145.274 85.7109 144.874 92.2109 148.674 96.3109C150.574 98.4109 153.374 99.5108 156.074 99.5108C158.674 99.5108 161.174 98.6109 163.174 96.6109C163.674 96.1109 164.174 95.7109 164.574 95.3109C165.574 96.5109 166.774 97.9108 167.674 99.0108H175.274C175.474 99.0108 175.574 98.8109 175.474 98.6109C173.074 95.9109 159.374 79.8109 158.174 78.5109ZM159.074 92.5108C157.374 94.0108 154.874 94.1109 153.374 92.6109C152.474 91.7109 152.074 90.6109 152.274 89.2109C152.374 88.3109 152.874 87.4109 153.574 86.6109C154.274 85.9109 155.074 85.3109 155.574 84.9109C156.774 86.4109 158.674 88.6109 160.674 90.9109C160.174 91.4109 159.674 91.9108 159.074 92.5108Z" fill="black"/>
</g>
<defs>
<clipPath id="clip0">
<rect width="342" height="171" fill="white"/>
</clipPath>
</defs>
</svg>
